<?xml version="1.0" encoding="UTF-8"?>
<svg width="24px" height="24px" viewBox="0 0 24 24" version="1.1" xmlns="http://www.w3.org/2000/svg">
    <g stroke="none" stroke-width="1" fill="none" fill-rule="evenodd">
        <path d="M12,4 C15.3137085,4 18,6.6862915 18,10 L18,11 L20,11 L16,15 L12,11 L14,11 L14,10 C14,8.8954305 13.1045695,8 12,8 C10.8954305,8 10,8.8954305 10,10 C10,11.1045695 10.8954305,12 12,12 C12.5522847,12 13.0522847,12.1913447 13.4142136,12.5355339 C13.7761424,12.8797231 14,13.3596011 14,13.8571429 C14,14.3546846 13.7761424,14.8345626 13.4142136,15.1787518 C13.0522847,15.522941 12.5522847,15.7142857 12,15.7142857 C9.85714286,15.7142857 8.28571429,14.1428571 8.28571429,12 C8.28571429,8.6862915 10.6862915,4 12,4 Z" fill="currentColor"></path>
    </g>
</svg>
