<?xml version="1.0" encoding="UTF-8"?>
<svg width="100" height="100" viewBox="0 0 100 100" version="1.1" xmlns="http://www.w3.org/2000/svg">
    <defs>
        <pattern id="wood-pattern" patternUnits="userSpaceOnUse" width="100" height="100">
            <rect width="100" height="100" fill="#e6c88e"/>
            <g fill="#d4b67c" opacity="0.3">
                <path d="M0,0 C20,8 40,0 60,5 C80,10 100,0 100,0 L100,10 C80,15 60,10 40,15 C20,20 0,10 0,10 Z"/>
                <path d="M0,20 C20,28 40,20 60,25 C80,30 100,20 100,20 L100,30 C80,35 60,30 40,35 C20,40 0,30 0,30 Z"/>
                <path d="M0,40 C20,48 40,40 60,45 C80,50 100,40 100,40 L100,50 C80,55 60,50 40,55 C20,60 0,50 0,50 Z"/>
                <path d="M0,60 C20,68 40,60 60,65 C80,70 100,60 100,60 L100,70 C80,75 60,70 40,75 C20,80 0,70 0,70 Z"/>
                <path d="M0,80 C20,88 40,80 60,85 C80,90 100,80 100,80 L100,90 C80,95 60,90 40,95 C20,100 0,90 0,90 Z"/>
            </g>
        </pattern>
    </defs>
    <rect width="100" height="100" fill="url(#wood-pattern)"/>
</svg>
